<svg width="30" height="21" viewBox="0 0 30 21" fill="none" xmlns="http://www.w3.org/2000/svg">
<path d="M29.7773 7.39922L23.9082 0.554297C23.763 0.380654 23.5814 0.241016 23.3762 0.14524C23.1711 0.0494631 22.9474 -0.000116673 22.721 2.06168e-07H1.54688C1.13662 2.06168e-07 0.743165 0.162974 0.453069 0.453069C0.162974 0.743165 0 1.13662 0 1.54688V15.9844C0 16.3946 0.162974 16.7881 0.453069 17.0782C0.743165 17.3683 1.13662 17.5312 1.54688 17.5312H4.16238C4.28691 18.3898 4.71648 19.1747 5.37244 19.7424C6.02841 20.3101 6.86688 20.6225 7.73438 20.6225C8.60187 20.6225 9.44034 20.3101 10.0963 19.7424C10.7523 19.1747 11.1818 18.3898 11.3064 17.5312H18.5999C18.7244 18.3898 19.154 19.1747 19.8099 19.7424C20.4659 20.3101 21.3044 20.6225 22.1719 20.6225C23.0394 20.6225 23.8778 20.3101 24.5338 19.7424C25.1898 19.1747 25.6193 18.3898 25.7439 17.5312H28.3594C28.7696 17.5312 29.1631 17.3683 29.4532 17.0782C29.7433 16.7881 29.9062 16.3946 29.9062 15.9844V7.73438C29.9048 7.61082 29.8591 7.49188 29.7773 7.39922ZM23.1206 1.22074L28.2691 7.21875H19.5938V1.03125H22.721C22.7975 1.03122 22.8731 1.0482 22.9422 1.08098C23.0113 1.11375 23.0722 1.16149 23.1206 1.22074ZM10.3125 7.21875V1.03125H18.5625V7.21875H10.3125ZM1.54688 1.03125H9.28125V7.21875H1.03125V1.54688C1.03125 1.41012 1.08557 1.27897 1.18227 1.18227C1.27897 1.08557 1.41012 1.03125 1.54688 1.03125ZM7.73438 19.5938C7.22447 19.5938 6.72602 19.4425 6.30205 19.1593C5.87808 18.876 5.54763 18.4733 5.3525 18.0022C5.15737 17.5311 5.10631 17.0128 5.20579 16.5127C5.30527 16.0126 5.55081 15.5532 5.91137 15.1926C6.27192 14.8321 6.7313 14.5865 7.23141 14.487C7.73151 14.3876 8.24989 14.4386 8.72098 14.6337C9.19207 14.8289 9.59472 15.1593 9.87801 15.5833C10.1613 16.0073 10.3125 16.5057 10.3125 17.0156C10.3125 17.6994 10.0409 18.3551 9.55738 18.8386C9.07389 19.3221 8.41814 19.5938 7.73438 19.5938ZM22.1719 19.5938C21.662 19.5938 21.1635 19.4425 20.7395 19.1593C20.3156 18.876 19.9851 18.4733 19.79 18.0022C19.5949 17.5311 19.5438 17.0128 19.6433 16.5127C19.7428 16.0126 19.9883 15.5532 20.3489 15.1926C20.7094 14.8321 21.1688 14.5865 21.6689 14.487C22.169 14.3876 22.6874 14.4386 23.1585 14.6337C23.6296 14.8289 24.0322 15.1593 24.3155 15.5833C24.5988 16.0073 24.75 16.5057 24.75 17.0156C24.75 17.6994 24.4784 18.3551 23.9949 18.8386C23.5114 19.3221 22.8556 19.5938 22.1719 19.5938ZM28.3594 16.5H25.7439C25.6193 15.6415 25.1898 14.8565 24.5338 14.2889C23.8778 13.7212 23.0394 13.4088 22.1719 13.4088C21.3044 13.4088 20.4659 13.7212 19.8099 14.2889C19.154 14.8565 18.7244 15.6415 18.5999 16.5H11.3064C11.1818 15.6415 10.7523 14.8565 10.0963 14.2889C9.44034 13.7212 8.60187 13.4088 7.73438 13.4088C6.86688 13.4088 6.02841 13.7212 5.37244 14.2889C4.71648 14.8565 4.28691 15.6415 4.16238 16.5H1.54688C1.41012 16.5 1.27897 16.4457 1.18227 16.349C1.08557 16.2523 1.03125 16.1211 1.03125 15.9844V8.25H28.875V15.9844C28.875 16.1211 28.8207 16.2523 28.724 16.349C28.6273 16.4457 28.4961 16.5 28.3594 16.5Z" fill="black"/>
</svg>
