<svg width="33" height="33" viewBox="0 0 33 33" fill="none" xmlns="http://www.w3.org/2000/svg">
<path d="M16.5 25.0938C21.2462 25.0938 25.0938 21.2462 25.0938 16.5C25.0938 11.7538 21.2462 7.90625 16.5 7.90625C11.7538 7.90625 7.90625 11.7538 7.90625 16.5C7.90625 21.2462 11.7538 25.0938 16.5 25.0938Z" stroke="black" stroke-width="0.6875" stroke-linecap="round" stroke-linejoin="round"/>
<path d="M13.1704 2.09888L8.67211 3.962L9.58511 7.32869C8.73274 7.97268 7.97384 8.73181 7.33011 9.58438L3.96342 8.67138L2.09961 13.1697L5.09917 14.8898C5.02309 15.4238 4.98505 15.9605 4.98505 16.4999C4.98505 17.0389 5.02309 17.5756 5.09917 18.1101L2.09961 19.8302L3.96273 24.3285L7.32942 23.4155C7.97341 24.2679 8.73255 25.0268 9.58511 25.6705L8.67211 29.0372L13.1704 30.901L14.8905 27.9014C15.4245 27.9771 15.9612 28.0151 16.5007 28.0156C17.0397 28.0156 17.5764 27.9775 18.1108 27.9014L19.8309 30.901L24.3292 29.0379L23.4162 25.6712C24.2686 25.0272 25.0275 24.2681 25.6712 23.4155L29.0379 24.3285L30.9017 19.8302L27.9022 18.1101C27.9778 17.5756 28.0158 17.0389 28.0163 16.4999C28.015 15.9612 27.9764 15.4232 27.9008 14.8898L30.9017 13.1697L29.0386 8.67138L25.7001 9.57682C25.0515 8.71579 24.2855 7.94982 23.4245 7.30119L24.3292 3.96269L19.8309 2.09888L18.1108 5.09981C17.5774 5.02425 17.0394 4.98566 16.5007 4.98431C15.9612 4.98431 15.4245 5.02236 14.8905 5.09844L13.1704 2.09888Z" stroke="black" stroke-width="0.6875" stroke-linecap="round" stroke-linejoin="round"/>
<path d="M13.5438 14.0202L11.8553 11.6524M18.9799 19.4569L21.3476 21.1448M12.8914 10.7236L14.7167 13.2C12.5682 14.5915 12.0423 14.9786 15.0315 17.9685C18.0222 20.9584 18.4085 20.4318 19.8 18.2841L22.2764 20.1087C18.654 24.9349 14.795 20.3534 13.7205 19.2796C12.6466 18.205 8.0651 14.3461 12.8914 10.7236Z" stroke="black" stroke-width="0.6875" stroke-linecap="round" stroke-linejoin="round"/>
</svg>
