<svg width="23" height="25" viewBox="0 0 23 25" fill="none" xmlns="http://www.w3.org/2000/svg">
<path fill-rule="evenodd" clip-rule="evenodd" d="M17.5899 8.6075C17.3403 8.80344 17.0165 8.96019 16.626 9.08738C16.6434 9.26429 16.6521 9.4435 16.6521 9.625C16.6518 10.3697 16.5003 11.1067 16.2067 11.7911C15.9131 12.4755 15.4835 13.0932 14.9441 13.6067C14.4046 14.1201 13.7665 14.5187 13.0684 14.7782C12.3703 15.0377 11.6268 15.1527 10.883 15.1162C10.1391 15.0798 9.41043 14.8926 8.74106 14.5662C8.07168 14.2397 7.47559 13.7807 6.98891 13.2169C6.50224 12.6532 6.13512 11.9965 5.90982 11.2866C5.68453 10.5768 5.60574 9.82858 5.67824 9.08738C5.28774 8.96019 4.96393 8.80344 4.71505 8.6075C4.39193 8.35313 4.17537 8.0135 4.14993 7.60513C4.12587 7.22631 4.27574 6.90456 4.42562 6.67769C4.57351 6.46275 4.7492 6.26833 4.94812 6.0995C5.04528 6.01517 5.13832 5.94023 5.22724 5.87469C5.20066 5.73306 5.1727 5.56348 5.14337 5.36594C5.0222 4.49926 4.96246 3.6251 4.96462 2.75C4.96462 2.53413 5.05674 2.37325 5.09937 2.30519C5.15299 2.21925 5.21624 2.14569 5.27399 2.08656C5.3888 1.96625 5.5373 1.84387 5.70024 1.72631C6.03024 1.48706 6.48399 1.21825 7.02299 0.966625C8.09755 0.46475 9.57362 0 11.1521 0C12.7306 0 14.2067 0.465438 15.2812 0.966625C15.7447 1.17846 16.1875 1.43278 16.604 1.72631C16.7669 1.84387 16.9154 1.96694 17.0302 2.08656C17.088 2.14569 17.1512 2.21925 17.2049 2.30519C17.2475 2.37325 17.3396 2.53413 17.3396 2.75C17.3396 3.85138 17.2502 4.74375 17.1609 5.36594C17.1315 5.56394 17.1036 5.73352 17.077 5.87469C17.165 5.94 17.2606 6.01494 17.3568 6.0995C17.5287 6.25006 17.7253 6.446 17.8786 6.67769C18.0292 6.90456 18.1784 7.22631 18.155 7.60581C18.1296 8.0135 17.913 8.35313 17.5899 8.6075ZM6.34099 2.96862C6.3513 3.89538 6.4283 4.64475 6.50462 5.16862C6.52295 5.29237 6.54037 5.40283 6.55687 5.5H15.7474C15.7643 5.40238 15.7817 5.29192 15.7996 5.16862C15.8752 4.64475 15.9529 3.89538 15.9632 2.96862C15.9097 2.92345 15.8544 2.88033 15.7976 2.83938C15.5494 2.65994 15.1726 2.43375 14.6996 2.21306C13.7488 1.76894 12.4749 1.375 11.1521 1.375C9.82937 1.375 8.55543 1.76894 7.60462 2.21306C7.13162 2.43375 6.75487 2.65994 6.50737 2.83869C6.45025 2.88008 6.39475 2.92365 6.34099 2.96931M6.19387 6.875L6.1918 6.87638C6.07311 6.9554 5.95946 7.04173 5.85149 7.13488C5.72912 7.24213 5.63149 7.34663 5.57237 7.43738C5.55862 7.45799 5.546 7.47933 5.53455 7.50131L5.5648 7.52675C5.66793 7.60787 5.8893 7.72681 6.32105 7.84437C6.4063 7.86729 6.49774 7.88975 6.59537 7.91175L6.60155 7.91313C6.94668 7.98944 7.37155 8.0575 7.88924 8.11112C8.6228 8.18744 9.54612 8.23762 10.6997 8.24862L11.1521 8.25C13.3707 8.25 14.8055 8.11181 15.7034 7.91313L15.7089 7.91175C15.8069 7.89021 15.8986 7.86775 15.9839 7.84437C16.4149 7.7275 16.637 7.60787 16.7394 7.52675L16.7697 7.50131C16.7585 7.47935 16.7461 7.45801 16.7326 7.43738C16.6523 7.32525 16.5583 7.22362 16.4527 7.13488C16.345 7.04176 16.2316 6.95542 16.1131 6.87638L16.1104 6.875H6.19387ZM10.9651 9.625C12.7815 9.625 14.1895 9.52875 15.2689 9.361C15.2744 9.44808 15.2771 9.53608 15.2771 9.625C15.2766 10.1755 15.166 10.7204 14.9516 11.2274C14.7373 11.7345 14.4236 12.1935 14.0291 12.5775C13.6346 12.9614 13.1672 13.2625 12.6545 13.463C12.1418 13.6635 11.5941 13.7594 11.0438 13.7449C10.4935 13.7305 9.95162 13.606 9.45015 13.3789C8.94868 13.1517 8.49775 12.8265 8.12393 12.4224C7.75012 12.0182 7.46097 11.5434 7.27355 11.0257C7.08612 10.5081 7.0042 9.95821 7.03262 9.40844C8.03843 9.54731 9.32749 9.625 10.9651 9.625ZM5.70574 22.6029C5.66976 22.8587 5.65184 23.1167 5.65212 23.375V24.0625C5.65219 24.2136 5.60247 24.3606 5.51063 24.4806C5.41879 24.6006 5.28996 24.6871 5.14406 24.7265C4.99817 24.766 4.84334 24.7562 4.70353 24.6988C4.56371 24.6414 4.44671 24.5396 4.37062 24.409C3.90705 24.6597 3.36512 24.7234 2.85605 24.5871L1.5278 24.2309C0.999637 24.0892 0.549396 23.7434 0.276078 23.2698C0.00276101 22.7961 -0.0712552 22.2333 0.0703038 21.7051L0.603803 19.7127C0.745429 19.1844 1.0911 18.734 1.56478 18.4605C2.03846 18.1871 2.60136 18.113 3.12968 18.2545L4.45793 18.6099C4.91993 18.7337 5.30355 19.0052 5.5703 19.36C6.20685 18.4742 7.04522 17.7528 8.01599 17.2555C8.98677 16.7581 10.062 16.4992 11.1528 16.5C12.243 16.4995 13.3176 16.7584 14.2879 17.2555C15.2581 17.7526 16.0961 18.4735 16.7326 19.3586C17.0094 18.9926 17.4003 18.7294 17.8436 18.6106L19.1718 18.2552C19.7 18.1136 20.2628 18.1876 20.7365 18.461C21.2102 18.7343 21.5559 19.1845 21.6977 19.7127L22.2319 21.7057C22.3019 21.9674 22.3198 22.2403 22.2844 22.5088C22.249 22.7774 22.161 23.0363 22.0256 23.2708C21.8901 23.5054 21.7098 23.711 21.4948 23.8758C21.2799 24.0407 21.0346 24.1616 20.773 24.2316L19.4454 24.5871C18.9373 24.7235 18.3962 24.6605 17.9329 24.4111C17.8566 24.5415 17.7394 24.6431 17.5996 24.7002C17.4597 24.7573 17.3049 24.7668 17.1591 24.7271C17.0133 24.6874 16.8846 24.6008 16.793 24.4807C16.7014 24.3606 16.6518 24.2136 16.6521 24.0625V23.375C16.6524 23.1167 16.6345 22.8587 16.5985 22.6029L13.0207 23.562C12.8547 23.9175 12.5906 24.2182 12.2597 24.4289C11.9287 24.6396 11.5445 24.7515 11.1521 24.7515C10.7598 24.7515 10.3756 24.6396 10.0446 24.4289C9.71359 24.2182 9.44956 23.9175 9.28349 23.562L5.70574 22.6029ZM9.17212 22.1079C9.26404 21.7943 9.42916 21.5071 9.65387 21.2698C9.87859 21.0325 10.1565 20.8521 10.4646 20.7432V17.9176C9.50032 18.0396 8.58548 18.4146 7.81304 19.0046C7.0406 19.5946 6.43808 20.3785 6.06668 21.2768L9.17212 22.1079ZM16.2376 21.2761C15.8661 20.378 15.2635 19.5942 14.4911 19.0043C13.7186 18.4145 12.8038 18.0395 11.8396 17.9176V20.7426C12.4611 20.9626 12.9465 21.4713 13.1321 22.1086L16.2376 21.2761ZM17.7136 20.7811C17.6902 20.6938 17.6842 20.6029 17.696 20.5134C17.7078 20.4238 17.7371 20.3375 17.7822 20.2593C17.8273 20.1811 17.8874 20.1125 17.9591 20.0576C18.0307 20.0026 18.1125 19.9622 18.1997 19.9389L19.5279 19.5828C19.704 19.5357 19.8915 19.5605 20.0493 19.6516C20.2071 19.7428 20.3222 19.8928 20.3694 20.0688L20.9036 22.0612C20.927 22.1484 20.933 22.2394 20.9212 22.3289C20.9095 22.4184 20.8802 22.5048 20.835 22.583C20.7899 22.6612 20.7298 22.7297 20.6582 22.7847C20.5865 22.8397 20.5048 22.88 20.4176 22.9034L19.0893 23.2595C19.002 23.2829 18.911 23.2888 18.8215 23.277C18.7319 23.2652 18.6455 23.2359 18.5673 23.1907C18.4891 23.1455 18.4206 23.0853 18.3656 23.0136C18.3107 22.9419 18.2704 22.86 18.2471 22.7728L17.7136 20.7811ZM2.77424 19.5828C2.68698 19.5593 2.59594 19.5532 2.50634 19.5649C2.41673 19.5766 2.33032 19.6059 2.25203 19.651C2.17375 19.6962 2.10513 19.7563 2.05011 19.828C1.99509 19.8997 1.95474 19.9815 1.93137 20.0688L1.39787 22.0605C1.37447 22.1477 1.36849 22.2387 1.38025 22.3282C1.39202 22.4177 1.42131 22.5041 1.46645 22.5823C1.51158 22.6605 1.57168 22.729 1.64332 22.784C1.71495 22.839 1.79671 22.8793 1.88393 22.9027L3.21218 23.2588C3.29939 23.2822 3.39036 23.2882 3.47989 23.2764C3.56942 23.2647 3.65575 23.2354 3.73396 23.1902C3.81216 23.1451 3.88071 23.085 3.93569 23.0134C3.99067 22.9417 4.03099 22.86 4.05437 22.7728L4.58787 20.7804C4.61136 20.6931 4.61743 20.6021 4.60571 20.5125C4.59399 20.4229 4.56472 20.3365 4.51958 20.2582C4.47444 20.1799 4.4143 20.1113 4.34262 20.0562C4.27093 20.0012 4.1891 19.9609 4.1018 19.9375L2.77424 19.5828ZM11.8396 22.6875C11.8396 22.8698 11.7672 23.0447 11.6383 23.1736C11.5093 23.3026 11.3345 23.375 11.1521 23.375C10.9698 23.375 10.7949 23.3026 10.666 23.1736C10.537 23.0447 10.4646 22.8698 10.4646 22.6875C10.4646 22.5052 10.537 22.3303 10.666 22.2014C10.7949 22.0724 10.9698 22 11.1521 22C11.3345 22 11.5093 22.0724 11.6383 22.2014C11.7672 22.3303 11.8396 22.5052 11.8396 22.6875Z" fill="black"/>
</svg>
