<svg width="30" height="30" viewBox="0 0 30 30" fill="none" xmlns="http://www.w3.org/2000/svg">
<g clip-path="url(#clip0_4046_3055)">
<path d="M17.4333 22.9771C16.6226 23.6096 15.6682 23.9258 14.7194 23.9258C13.7707 23.9258 12.8186 23.612 12.0078 22.9806L0 13.6395V26.68C0 28.2037 1.23563 29.4399 2.7599 29.4399H26.679C28.2033 29.4399 29.4389 28.2042 29.4389 26.7317V13.6395L17.4333 22.9771ZM28.5132 12.0238C29.2572 11.4373 29.3118 10.2908 28.6505 9.61174C28.5671 9.52595 28.4772 9.44551 28.3811 9.37117C27.6795 8.82114 27.0355 8.31516 25.759 7.36645V14.1684C25.759 14.1684 28.5132 12.0295 28.5132 12.0238ZM14.7424 0.000976562H14.6964C13.6362 0.000976562 12.2263 1.05491 11.2086 1.84091H18.2349C17.2149 1.05491 15.8062 0.000976562 14.7424 0.000976562ZM0.930315 12.0295L3.67986 14.1684V7.36645C2.40341 8.31516 1.75713 8.82114 1.05681 9.37312C0.960214 9.44787 0.870517 9.52837 0.787145 9.61461C0.125978 10.2413 0.186293 11.443 0.930315 12.0295C0.93434 12.0353 0.92629 12.0295 0.930315 12.0295ZM10.1196 12.8287H19.3193C19.8273 12.8287 20.2392 12.4168 20.2392 11.9088C20.2392 11.4006 19.8273 11.0406 19.3193 11.0406H10.1196C9.61157 11.0406 9.19965 11.4524 9.19965 11.9088C9.19965 12.4665 9.61364 12.8287 10.1196 12.8287ZM10.1196 9.14888H19.3193C19.8273 9.14888 20.2392 8.73697 20.2392 8.28066C20.2392 7.7725 19.8273 7.41245 19.3193 7.41245H10.1196C9.61157 7.41245 9.19965 7.82425 9.19965 8.28066C9.19965 8.78664 9.61364 9.14888 10.1196 9.14888Z" fill="white"/>
<path opacity="0.4" d="M23.9209 1.84094H5.52157C4.50558 1.84094 3.68164 2.66489 3.68164 3.62912V14.1685L13.14 21.5224C14.0715 22.2469 15.375 22.2469 16.3059 21.5224L25.7608 14.1685V3.68087C25.7608 2.66489 24.9386 1.84094 23.9209 1.84094ZM19.3211 12.8288H10.1214C9.61335 12.8288 9.20143 12.4169 9.20143 11.9088C9.20143 11.4006 9.61335 11.0406 10.1214 11.0406H19.3211C19.8291 11.0406 20.241 11.4524 20.241 11.9088C20.241 12.4665 19.827 12.8288 19.3211 12.8288ZM19.3211 9.14892H10.1214C9.61335 9.14892 9.20143 8.737 9.20143 8.2807C9.20143 7.77253 9.61335 7.41248 10.1214 7.41248H19.3211C19.8291 7.41248 20.241 7.82428 20.241 8.2807C20.241 8.78668 19.827 9.14892 19.3211 9.14892Z" fill="white"/>
</g>
<defs>
<clipPath id="clip0_4046_3055">
<rect width="29.4389" height="29.4389" fill="white"/>
</clipPath>
</defs>
</svg>
