<svg width="27" height="30" viewBox="0 0 27 30" fill="none" xmlns="http://www.w3.org/2000/svg">
<path d="M10.6562 12.0312C10.6562 12.7606 10.946 13.4601 11.4617 13.9758C11.9774 14.4915 12.6769 14.7812 13.4062 14.7812C14.1356 14.7812 14.8351 14.4915 15.3508 13.9758C15.8665 13.4601 16.1562 12.7606 16.1562 12.0312C16.1562 11.3019 15.8665 10.6024 15.3508 10.0867C14.8351 9.57098 14.1356 9.28125 13.4062 9.28125C12.6769 9.28125 11.9774 9.57098 11.4617 10.0867C10.946 10.6024 10.6562 11.3019 10.6562 12.0312Z" stroke="black" stroke-width="2.0625"/>
<path d="M21.9931 18.9062C23.2884 17.2885 24.1003 15.3377 24.3353 13.2787C24.5703 11.2197 24.2189 9.13614 23.3215 7.26811C22.4241 5.40008 21.0173 3.82354 19.2631 2.72011C17.5089 1.61668 15.4787 1.03125 13.4063 1.03125C11.3339 1.03125 9.30362 1.61668 7.5494 2.72011C5.79519 3.82354 4.38837 5.40008 3.49099 7.26811C2.59362 9.13614 2.2422 11.2197 2.47722 13.2787C2.71224 15.3377 3.52413 17.2885 4.81938 18.9062" stroke="black" stroke-width="2.0625" stroke-linecap="round"/>
<path d="M1.03125 23.7188C1.03125 21.7882 1.03125 20.8216 1.44787 20.1286C1.62937 19.8289 1.86037 19.5704 2.13125 19.3696C2.7555 18.9062 3.6245 18.9062 5.3625 18.9062H21.45C23.188 18.9062 24.057 18.9062 24.6813 19.3696C24.9521 19.5704 25.1831 19.8289 25.3646 20.1286C25.7813 20.8216 25.7812 21.7882 25.7812 23.7188C25.7812 25.6493 25.7813 26.6159 25.3646 27.3089C25.1831 27.6086 24.9521 27.8671 24.6813 28.0679C24.057 28.5313 23.188 28.5312 21.45 28.5312H5.3625C3.6245 28.5312 2.7555 28.5313 2.13125 28.0679C1.85574 27.8623 1.62351 27.6044 1.44787 27.3089C1.03125 26.6159 1.03125 25.6493 1.03125 23.7188Z" stroke="black" stroke-width="2.0625"/>
<path d="M12.0312 23.0312H14.7812M18.755 7.36995L21.5215 4.6062" stroke="black" stroke-width="2.0625" stroke-linecap="round" stroke-linejoin="round"/>
</svg>
