<svg width="30" height="30" viewBox="0 0 30 30" fill="none" xmlns="http://www.w3.org/2000/svg">
<g clip-path="url(#clip0_4046_3058)">
<path d="M10.4 19.219L9.4225 18.0346C8.91755 17.4165 8.06153 17.2054 7.3267 17.5182L1.08819 20.193C0.288393 20.5434 -0.149165 21.4085 0.0463274 22.2526L0.281034 23.2697L10.4 19.219ZM28.046 1.38032L25.7082 0.840818L21.1302 11.9551C19.1753 15.9369 15.9399 19.1711 11.9593 21.1261L0.844972 25.7058L1.38442 28.0436C1.57134 28.863 2.29231 29.4362 3.13523 29.4362C17.6419 29.4362 29.4405 17.6377 29.4405 3.13096C29.4375 2.28821 28.8625 1.56834 28.046 1.38032ZM19.2259 10.3931L23.2714 0.279237L22.2537 0.0444731C21.4148 -0.149467 20.5409 0.286366 20.1959 1.08576L17.5182 7.32272C17.2002 8.05754 17.4144 8.92001 18.0342 9.41967L19.2259 10.3931Z" fill="white"/>
<path opacity="0.4" d="M11.9612 21.1274L10.4019 19.2207L0.333984 23.2686L0.896658 25.7071L11.9612 21.1274ZM25.7089 0.840391L23.2704 0.277832L19.2289 10.3925L21.1344 11.9547L25.7089 0.840391Z" fill="white"/>
</g>
<defs>
<clipPath id="clip0_4046_3058">
<rect width="29.4389" height="29.4389" fill="white"/>
</clipPath>
</defs>
</svg>
