<svg width="22" height="25" viewBox="0 0 22 25" fill="none" xmlns="http://www.w3.org/2000/svg">
<path d="M20.1094 2.0625H17.2296L15.3179 0.15082C15.27 0.102953 15.2131 0.0649954 15.1505 0.0391172C15.0879 0.013239 15.0209 -5.31021e-05 14.9531 1.59432e-07H6.70312C6.63539 -5.31021e-05 6.56831 0.013239 6.50572 0.0391172C6.44312 0.0649954 6.38624 0.102953 6.33832 0.15082L4.42664 2.0625H1.54688C1.13662 2.0625 0.743164 2.22547 0.453069 2.51557C0.162974 2.80566 0 3.19912 0 3.60938V23.2031C0 23.6134 0.162974 24.0068 0.453069 24.2969C0.743164 24.587 1.13662 24.75 1.54688 24.75H20.1094C20.5196 24.75 20.9131 24.587 21.2032 24.2969C21.4933 24.0068 21.6562 23.6134 21.6562 23.2031V3.60938C21.6562 3.19912 21.4933 2.80566 21.2032 2.51557C20.9131 2.22547 20.5196 2.0625 20.1094 2.0625ZM10.8281 5.77371L7.66605 1.03125H13.9902L10.8281 5.77371ZM15.033 1.32516L16.5 2.79211V9.79688C16.5002 9.895 16.4724 9.99115 16.4199 10.074C16.3674 10.1569 16.2923 10.2231 16.2035 10.2648C16.1162 10.3069 16.0187 10.3231 15.9225 10.3114C15.8264 10.2998 15.7355 10.2608 15.6608 10.1991L11.51 6.61289L15.033 1.32516ZM5.15625 2.79211L6.6232 1.32516L10.1462 6.61031L5.9993 10.1939C5.9239 10.2559 5.83246 10.2952 5.73562 10.3073C5.63877 10.3193 5.54048 10.3036 5.45218 10.2621C5.36389 10.2205 5.28921 10.1547 5.23682 10.0723C5.18443 9.99 5.1565 9.89447 5.15625 9.79688V2.79211ZM1.03125 23.2031V3.60938C1.03125 3.47262 1.08557 3.34147 1.18227 3.24477C1.27897 3.14807 1.41012 3.09375 1.54688 3.09375H4.125V9.79688C4.12319 10.0913 4.20623 10.3801 4.3642 10.6285C4.52216 10.877 4.74836 11.0748 5.01574 11.1981C5.22127 11.2937 5.44518 11.3435 5.67188 11.3438C6.03285 11.3434 6.38211 11.2156 6.65801 10.9828H6.66574L10.3125 7.82977V23.7188H1.54688C1.41012 23.7188 1.27897 23.6644 1.18227 23.5677C1.08557 23.471 1.03125 23.3399 1.03125 23.2031ZM20.625 23.2031C20.625 23.3399 20.5707 23.471 20.474 23.5677C20.3773 23.6644 20.2461 23.7188 20.1094 23.7188H11.3438V7.82977L14.9944 10.9828C15.2714 11.2162 15.6221 11.3441 15.9844 11.3438C16.2126 11.3432 16.4379 11.2926 16.6444 11.1955C16.9106 11.0718 17.1358 10.8742 17.293 10.6263C17.4502 10.3783 17.5329 10.0905 17.5312 9.79688V3.09375H20.1094C20.2461 3.09375 20.3773 3.14807 20.474 3.24477C20.5707 3.34147 20.625 3.47262 20.625 3.60938V23.2031Z" fill="black"/>
</svg>
